<?xml version="1.0" encoding="utf-8"?>
<!-- Generator: Adobe Illustrator 24.0.0, SVG Export Plug-In . SVG Version: 6.00 Build 0)  -->
<svg version="1.1" id="Layer_1" xmlns="http://www.w3.org/2000/svg" xmlns:xlink="http://www.w3.org/1999/xlink" x="0px" y="0px"
	 viewBox="0 0 680.31 340.16" style="enable-background:new 0 0 680.31 340.16;" xml:space="preserve">
<style type="text/css">
	.st0{fill:#FF0074;}
</style>
<g>
	<g>
		<path class="st0" d="M345.7,310.11c-98.33,0-178.33-57.02-178.33-127.11s80-127.11,178.33-127.11S524.03,112.91,524.03,183
			S444.03,310.11,345.7,310.11z M345.7,69.35c-90.91,0-164.87,50.98-164.87,113.65s73.96,113.65,164.87,113.65
			c90.91,0,164.87-50.98,164.87-113.65S436.61,69.35,345.7,69.35z"/>
	</g>
	<g>
		
			<rect x="176.96" y="149.35" transform="matrix(0.9992 -0.0403 0.0403 0.9992 -6.0081 13.9687)" class="st0" width="333.38" height="13.46"/>
	</g>
	<g>
		<path class="st0" d="M218.8,148.2c-7.63,0-13.83-0.29-16.61-0.45l0.66-11.76c28.46,1.6,56.71-1.44,59.25-6.38
			c-0.17-2.49-1.94-3.77-7.57-6.49c-5.41-2.61-13.58-6.56-12.64-16.57c1.43-15.3,32.28-19.02,45.47-19.9l5.77-0.39l4.6,54.37
			L286,141.62l-3.61-42.7c-15.32,1.73-27.83,5.91-28.78,8.78c-0.12,1.34,0.34,2.07,6.04,4.82c5.46,2.63,13.7,6.62,14.17,16.74
			c0.16,3.36-1.12,6.47-3.68,9.01C261.69,146.65,236.42,148.2,218.8,148.2z"/>
	</g>
	<g>
		<path class="st0" d="M333.46,142.44c-0.38-11.32-3.49-29.78-8.97-33.43c-11.85-7.91-28.49,13.73-28.65,13.95l-9.44-7.04
			c8.6-11.52,27.67-28.01,44.62-16.71c12.46,8.31,14.02,37.14,14.21,42.84L333.46,142.44z"/>
	</g>
	<g>
		
			<rect x="346.92" y="84.63" transform="matrix(0.9973 -0.0739 0.0739 0.9973 -6.4124 26.3478)" class="st0" width="11.78" height="30.37"/>
	</g>
	<g>
		
			<rect x="337.82" y="79.35" transform="matrix(0.9978 -0.0664 0.0664 0.9978 -4.8837 23.555)" class="st0" width="28.1" height="11.78"/>
	</g>
	<g>
		
			<rect x="344.75" y="110.19" transform="matrix(0.9986 -0.0522 0.0522 0.9986 -5.5725 18.7081)" class="st0" width="21.53" height="11.78"/>
	</g>
	<g>
		
			<rect x="197.53" y="135.89" transform="matrix(0.079 -0.9969 0.9969 0.079 49.3152 336.9404)" class="st0" width="18.94" height="11.78"/>
	</g>
	<g>
		<path class="st0" d="M392.55,150.04c-4.08,0-10.57-2.89-20.78-43.74l11.42-2.86c2.57,10.28,6.15,21.93,9.05,29.13
			c0.85-2.88,1.74-6.18,2.54-9.14c5.87-21.75,12.53-46.39,27.3-47.06c0.26-0.01,0.53-0.02,0.78-0.02
			c20.41,0,25.61,36.36,26.45,43.74l-11.7,1.34c-1.62-14.05-7.66-33.3-14.83-33.3c-0.06,0-0.12,0-0.18,0
			c-6.17,0.28-13.64,27.95-16.46,38.36c-4.41,16.33-6.24,23.09-12.59,23.5C393.24,150.02,392.9,150.04,392.55,150.04z"/>
	</g>
	<g>
		
			<rect x="421.59" y="99.72" transform="matrix(0.9998 -0.0195 0.0195 0.9998 -1.9769 8.8229)" class="st0" width="58.14" height="11.78"/>
	</g>
	<g>
		
			<rect x="368.08" y="98.88" transform="matrix(0.9755 -0.2199 0.2199 0.9755 -13.7901 85.6476)" class="st0" width="19.55" height="11.78"/>
	</g>
	<g>
		
			<rect x="456.06" y="197.45" transform="matrix(0.9963 -0.086 0.086 0.9963 -18.2729 40.5942)" class="st0" width="11.77" height="69.8"/>
	</g>
	<g>
		<path class="st0" d="M491.82,245.34c-0.01-0.04-2.37-7.77-11.01-17.52c-3.22-3.63-7.15-4.28-10.39-3.96
			c-5.1,2.54-8.41,2.62-9.32,2.59l-2.62-11.05c1.98-1.09,4.79-2.18,8.03-2.8c1.63-0.94,3.62-2.31,5.92-4.3
			c3.51-3.04,4.55-7.47,4.76-10.9l-21.16,1.44l-0.8-11.75l27.09-1.84l6.16,4.68c0.13,0.64,2.89,14.53-5.75,24.66
			c2.41,1.24,4.74,2.99,6.88,5.41c10.59,11.94,13.42,21.74,13.54,22.15L491.82,245.34z"/>
	</g>
	<g>
		<path class="st0" d="M204.56,256.11l-6.77-5.03l-9.35-69.16l1.43-0.19l3.37-9.51c1.46,0.52,35.75,13,35.33,46.01
			C228.16,251.95,205.53,255.95,204.56,256.11z M201.42,189.96l6.95,51.45c3.85-3.29,8.27-9.97,8.44-23.34
			C216.99,204.5,208.88,195.42,201.42,189.96z"/>
	</g>
	<g>
		<path class="st0" d="M352.63,289.25c-0.07-0.16-6.86-15.9-13.31-23.59c-9.37-11.17-25.51-26.24-25.67-26.39l3.05-10.12
			c0.01,0,2.35-0.4,10.56-2.19c5.6-1.22,13.56-9.23,16.03-13.88c-10.53-0.98-42.41,2.45-69.56,6.76l-1.84-11.63
			c81.11-12.85,82.68-5.01,83.71,0.18c2.32,11.61-14.84,27.66-25.78,30.08c5.63,5.53,13.06,13.1,18.54,19.63
			c7.57,9.02,14.8,25.8,15.11,26.51L352.63,289.25z"/>
	</g>
	<g>
		<path class="st0" d="M363.38,298.76c-0.16,0-0.31,0-0.47-0.01c-11.16-0.65-16.88-20.63-17.01-59.37l11.78-0.04
			c0.06,17.47,2.03,34.89,4.6,43.23c2.17-14.11,1.14-49.48-1.51-80.17l11.73-1.02c2.71,31.37,5.9,85.41-3.24,94.81
			C367.63,297.86,365.56,298.76,363.38,298.76z"/>
	</g>
	<g>
		
			<rect x="380.07" y="218.42" transform="matrix(0.9982 -0.0591 0.0591 0.9982 -12.5745 23.803)" class="st0" width="31.46" height="11.78"/>
	</g>
	<g>
		<path class="st0" d="M430.2,269.23c-1.95,0-3.82-0.21-5.49-0.61c-6.23-1.5-8.17-5.26-8.77-7.37c-1.73-6.06-6.21-51.41-6.21-58.07
			h10.69l-4.39-9.03c7.46-3.64,21.76-7.11,28.11,2.88c5.44,8.54,11.43,56.93,3.08,65.87C443.18,267.22,436.29,269.23,430.2,269.23z
			 M427.05,257.09c2.36,0.8,8.8,0.33,11.32-1.99c3.01-6.7-0.06-45.27-4.18-51.74c-1.53-2.41-8.73-0.58-12.65,1.22
			C421.99,213.53,425.65,249.74,427.05,257.09z"/>
	</g>
	<g>
		
			<rect x="392.52" y="227.45" transform="matrix(0.9984 -0.0558 0.0558 0.9984 -13.5745 22.6449)" class="st0" width="11.78" height="53.55"/>
	</g>
	<g>
		<path class="st0" d="M401.89,214.89c-1.42-0.34-13.97-3.65-17.95-14.09c-3.76-9.87,4.75-18.09,10.38-21.38l5.95,10.16l-2.98-5.08
			l3,5.07c-1.68,1-6.25,4.69-5.35,7.04c1.51,3.97,7.69,6.33,9.74,6.85L401.89,214.89z"/>
	</g>
	<g>
		
			<rect x="292.89" y="210.97" transform="matrix(0.9984 -0.0572 0.0572 0.9984 -14.0025 17.4961)" class="st0" width="11.78" height="85"/>
	</g>
	<g>
		
			<rect x="309.34" y="220.35" transform="matrix(0.9987 -0.0503 0.0503 0.9987 -11.9933 16.1679)" class="st0" width="11.77" height="52.03"/>
	</g>
	<g>
		
			<rect x="267.48" y="231.69" transform="matrix(0.2188 -0.9758 0.9758 0.2188 -14.1809 457.4534)" class="st0" width="22.22" height="11.78"/>
	</g>
	<g>
		<path class="st0" d="M272.95,296.93c-1.31,0-2.66-0.24-4.01-0.72c-6.16-2.2-14.84-11.52-17.36-14.33l8.77-7.86
			c4.01,4.47,9.68,9.74,12.19,10.94c0.57-0.98,1.47-3.55,1.47-8.51c0-3.19-3.06-6.83-6.61-11.04c-4.46-5.29-10.01-11.88-11.62-20.82
			c-1.26-7,1.3-11.07,3.67-13.26c6.67-6.16,18.52-3.43,20.83-2.82l-3.01,11.39l1.5-5.69l-1.49,5.7c-3.85-0.99-8.73-0.95-9.85,0.09
			c-0.17,0.16-0.34,0.98-0.06,2.52c1.05,5.84,5.1,10.66,9.03,15.31c4.61,5.47,9.38,11.13,9.38,18.63c0,9.01-2.33,15.42-6.74,18.52
			C277.22,296.28,275.13,296.93,272.95,296.93z"/>
	</g>
	<g>
		
			<rect x="267.66" y="200.54" transform="matrix(0.9975 -0.07 0.07 0.9975 -14.1118 19.6619)" class="st0" width="11.78" height="21.36"/>
	</g>
	<g>
		<polygon class="st0" points="235.21,241.16 233.37,229.52 242.2,228.13 241.13,214.49 252.87,213.57 254.37,232.64 249.42,238.91 
					"/>
	</g>
	<g>
		
			<rect x="237.24" y="250.39" transform="matrix(0.9942 -0.1074 0.1074 0.9942 -26.1184 27.7173)" class="st0" width="13.91" height="11.78"/>
	</g>
	<g>
		
			<rect x="230.09" y="228.59" transform="matrix(0.9992 -0.04 0.04 0.9992 -9.8845 9.6348)" class="st0" width="11.78" height="46.77"/>
	</g>
	<g>
		
			<rect x="234.38" y="162.44" transform="matrix(0.9998 -0.0187 0.0187 0.9998 -3.3668 4.5211)" class="st0" width="11.78" height="40.01"/>
	</g>
	<g>
		
			<rect x="310.28" y="137.39" transform="matrix(0.9999 -0.016 0.016 0.9999 -2.5306 5.0772)" class="st0" width="11.78" height="46.74"/>
	</g>
	<g>
		<path class="st0" d="M360,184.36c-0.31-7.64-1.87-45.83-1.87-47.72h11.78h-5.89l5.89-0.02c0.02,1.67,1.12,29.17,1.86,47.26
			L360,184.36z"/>
	</g>
	<g>
		
			<rect x="422.66" y="129.63" transform="matrix(0.9977 -0.0681 0.0681 0.9977 -8.1941 30.5792)" class="st0" width="43.84" height="11.78"/>
	</g>
	<g>
		
			<rect x="426.82" y="167.2" transform="matrix(0.9996 -0.0273 0.0273 0.9996 -4.5653 12.2968)" class="st0" width="41.14" height="11.78"/>
	</g>
	<g>
		
			<rect x="420.01" y="133.85" transform="matrix(0.9919 -0.1271 0.1271 0.9919 -16.3618 55.4021)" class="st0" width="11.77" height="44.1"/>
	</g>
	<g>
		
			<rect x="269.42" y="161.04" transform="matrix(0.0624 -0.9981 0.9981 0.0624 91.6402 431.3929)" class="st0" width="11.99" height="11.78"/>
	</g>
	<g>
		
			<rect x="205.04" y="164.9" transform="matrix(0.9721 -0.2347 0.2347 0.9721 -34.1145 54.2557)" class="st0" width="11.78" height="11.15"/>
	</g>
</g>
</svg>
